<?xml version="1.0" encoding="utf-8" ?>
<svg xmlns="http://www.w3.org/2000/svg" width="1024" height="1536" viewBox="0 0 1024 1536">
  <!-- Dark Background Circle for visibility in light tabs -->
  <circle cx="512" cy="768" r="700" fill="#0A0A0B" />
  <path fill="#FEFEFE" d="M717.949 411.428C728.196 417.22 744.942 436.374 752.336 445.828C780.941 482.403 799.446 543.003 792.301 589.575C770.934 719.723 601.951 697.567 507.378 728.394C458.689 744.264 415.577 778.965 407.897 831.854C397.338 904.565 467.184 956.097 532.652 963.605C585.184 969.629 629.32 962.413 671.871 929.89C658.596 964.472 650.115 981.634 629.519 1013.16C614.064 1036.28 609.906 1043.55 583.421 1051C526.723 1066.95 461.245 1062.51 409.401 1033.98C364.731 1009.85 331.516 968.924 317.101 920.251C306.097 883.141 308.458 843.349 323.772 807.799C376.011 689.077 523.479 674.02 625.925 619.077C639.523 611.785 652.633 603.463 664.644 593.751C683.358 578.608 698.932 559.954 710.49 538.839C734.015 496.092 731.06 456.347 717.949 411.428Z"/>
  <path fill="#FEFEFE" d="M612.897 331.777C621.538 335.165 633.239 342.487 640.628 348.017C672.385 371.785 696.737 405.247 702.432 445.048C718.42 556.781 625.801 601.245 537.794 637.78C503.238 652.126 465.045 667.896 431.991 684.487C391.716 704.702 351.767 732.1 325.341 768.971C298.443 806.501 287.329 842.564 294.23 888.18C295.376 894.611 297.116 900.628 298.835 906.922C265.941 885.872 238.967 844.717 230.739 806.774C222.457 768.78 227.262 729.104 244.372 694.183C282.111 616.175 370.373 569.26 447.485 537.673C535.47 501.631 637.663 444.694 612.897 331.777Z"/>
  <path fill="#FEFEFE" d="M542.402 771.125L786.267 771.122C778.627 825.894 762.383 879.117 738.133 928.821C707.204 991.14 635.444 1078.2 568.068 1100.88C611.237 1062.31 641.061 1014.05 666.167 962.572C679.343 935.831 690.774 901.787 700.872 873.661C702.352 869.538 706.939 855.456 707.484 851.554C707.32 851.713 694.373 878.724 693.656 880.172C665.96 936.113 612.078 962.645 551.151 959.091C517.53 957.129 486.879 949.79 461.751 928.819C490.574 939.323 527.3 939.231 557.006 932.782C601.058 923.217 637.079 899.546 661.472 861.399C648.679 862.092 631.928 861.667 618.822 861.673L542.356 861.694L542.402 771.125Z"/>
  <path fill="#FEFEFE" d="M802.431 625.384C803.731 627.113 804.034 631.495 804.192 633.713C805.453 651.376 804.048 670.237 797.455 686.738C789.771 705.949 774.628 721.227 755.484 729.087C723.094 742.711 684.865 737.418 653.143 724.501C647.909 722.063 642.636 719.71 637.325 717.444C642.776 716.097 648.571 715.706 654.141 714.86C713.018 705.911 777.178 684.542 802.431 625.384Z"/>
</svg>
