<?xml version="1.0" encoding="utf-8" ?><svg xmlns="http://www.w3.org/2000/svg" xmlns:xlink="http://www.w3.org/1999/xlink" width="1536" height="1024" viewBox="0 0 1536 1024"><path d="M742.05 401.01C729.41 404.069 716.756 406.826 704.231 410.369C697.488 412.276 674.546 422.367 669.417 421.078C669.158 421.013 668.906 420.922 668.65 420.85C667.666 420.57 666.686 420.323 665.745 419.916C662.525 418.522 660.094 416.247 658.941 412.877C657.415 408.416 658.146 403.019 660.191 398.844C663.406 392.277 670.35 387.601 677.158 385.412C719.787 371.702 918.91 338.957 954.161 357.991C957.331 359.703 959.982 362.614 960.835 366.182C961.545 369.149 960.889 372.575 959.144 375.076C957.38 377.603 955.139 378.667 952.117 378.868C943.724 379.426 934.748 376.77 926.136 376.87C897.622 377.2 867.481 379.958 839.395 384.805C845.514 385.532 854.886 385.551 858.478 391.321C861.382 402.812 820.858 484.96 812.238 500.415C815.698 497.005 819.233 491.525 822.529 487.656C836.242 471.563 867.757 436.72 891.648 449.713C920.474 465.389 866.255 532.887 870.41 548.659C872.191 550.746 871.249 550.166 873.993 550.792C892.125 547.353 915.854 489.457 918.926 472.966C920.681 466.733 917.263 454.878 924.199 451.457C936.323 445.477 959.963 445.524 953.355 465.444C951.528 469.732 949.858 473.69 948.252 478.084L955.174 468.416C963.465 458.495 987.352 435.836 1003.7 454.291C1010.1 461.522 995.223 482.436 987.773 486.246C977.612 491.443 979.821 481.555 972.705 479.623C955.34 480.599 931.252 532.558 928.598 548.061C926.189 562.136 927.75 579.107 910.011 576.246C894.632 573.765 891.008 568.788 893.502 553.158C883.554 563.223 868.619 575.914 853.346 573.956C807.353 568.061 855.403 505.336 857.728 482.153L856.748 481.17C844.265 480.008 813.589 528.363 807.091 539.596C801.691 546.346 796.915 570.997 789.485 574.139C773.994 580.814 757.199 574.344 761.394 554.542C773.652 496.674 800.724 442.579 818.53 386.535C807.21 387.841 793.811 390.245 782.396 392.012C780.903 407.221 773.74 424.81 768.764 439.413C756 476.334 743.737 513.513 731.415 550.567C728.101 560.534 727.873 573.517 727.446 581.081C727.106 587.083 704.188 588.454 697.229 585.57C685.499 581.537 683.696 568.954 686.363 557.711C698.985 504.503 722.257 451.789 742.05 401.01Z"/><path d="M489.401 554.869C464.409 577.624 442.901 588.626 408.294 587.129C367.408 585.36 341.244 558.15 344.215 516.773C347.327 473.429 375.356 437.482 406.602 409.451C439.236 380.813 481.251 359.036 525.79 362.004C551.666 363.729 570.103 376.001 568.313 404.183C567.599 415.43 564.013 425.791 555.432 433.204C545.596 442.29 520.87 445.3 510.654 435.385C509.531 434.296 509.737 434.076 509.74 432.58C516.355 422.677 529.459 416.545 527.116 400.579C525.202 387.531 511.237 388.197 501.235 390.136C465.287 400.069 435.742 431.694 415.749 461.86C402.579 482.091 390.052 510.366 395.476 534.616C400.508 557.111 419.387 562.602 439.895 557.132C462.968 550.978 487.254 532.304 499.413 511.857C500.212 510.507 500.987 509.143 501.738 507.766C489.987 508.88 464.244 513.204 454.64 507.345C446.482 502.368 451.71 483.56 462.651 482.004C488.157 478.375 514.627 478.192 540.391 477.153C544.78 477.315 560.029 476.469 560.061 483.03C560.086 488.251 553.337 493.091 551.26 497.178C540.162 519.098 533.729 544.403 528.29 568.262C526.76 573.706 526.826 581.987 528.407 587.479C532.395 601.336 515.478 601.484 506.077 601.298C477.785 600.739 485.749 572.913 492.577 556.456L496.699 546.464L489.401 554.869Z"/><path d="M1017.32 527.699C1018.23 542.8 1022.47 552.778 1040.21 550.694C1053.47 549.136 1065.29 539.937 1075.07 531.478C1080.25 526.946 1082 523.264 1083.55 516.765C1091.17 484.657 1119.85 451.758 1153.36 446.83C1170.33 444.335 1190.79 451.272 1191.42 470.473C1192.63 507.85 1151.06 524.532 1119.78 527.577C1119.94 540.356 1122.35 548.882 1135.93 552.028C1158.06 553.627 1174.06 541.976 1189.58 527.587C1194.04 523.595 1198.18 518.335 1203.23 515.094C1209.69 510.945 1215.25 518.737 1212.09 524.621C1201.58 544.217 1181.99 560.746 1161.78 569.738C1145.17 577.13 1123.87 579.285 1106.6 572.813C1093.51 567.612 1087.43 558.276 1082.43 546.231C1067.86 561.455 1050.57 574.087 1028.78 575.708C977.677 579.461 968.765 531.863 990.804 494.676C1005.77 469.424 1026.44 448.787 1057.36 446.678C1113.05 444.133 1090.72 519.543 1017.32 527.699ZM1122.5 512.269L1131.93 509.513C1147.66 504.018 1160.74 495.261 1168.6 480.021C1173.2 471.094 1170.38 464.901 1159.95 465.11L1159.33 465.117C1158.93 465.135 1158.54 465.153 1158.15 465.172C1142.38 472.418 1130.1 491.578 1124.19 507.53C1123.61 509.103 1123.05 510.682 1122.5 512.269ZM1020.7 511.619L1030.23 508.582C1043.91 504.413 1057.48 494.765 1064.19 482.032C1067.1 476.52 1070.67 468.414 1062.97 465.901C1059.86 464.888 1058.86 464.832 1055.58 465.238C1039.87 472.958 1026.98 493.107 1021.42 509.329C1021.16 510.086 1020.92 510.849 1020.7 511.619Z"/><path d="M636.329 446.681C646.825 445.445 662.474 448.539 670.387 455.525C696.314 478.412 684.726 522.916 664.889 545.804C647.313 566.083 628.811 575.626 602.621 578.254C533.59 579.355 545.381 513.06 578.259 476.602C593.814 459.353 612.716 448.014 636.329 446.681ZM611.173 554.143C631.971 544.556 657.88 491.591 648.308 471.163C646.907 468.104 644.293 465.768 641.097 464.718C639.1 464.078 636.016 464.218 633.925 464.432C615.71 473.893 605.602 495.83 599.269 514.587C596.376 523.157 592.484 540.566 596.809 548.594C598.218 551.253 600.642 553.23 603.53 554.075C605.7 554.707 608.951 554.486 611.173 554.143Z"/><path d="M489.401 554.869L496.699 546.464L492.577 556.456L489.401 554.869Z"/><path d="M948.252 478.084C949.858 473.69 951.528 469.732 953.355 465.444L955.174 468.416L948.252 478.084Z"/></svg>